<mxfile host="app.diagrams.net" modified="2024-02-04T08:42:31.868Z" agent="Mozilla/5.0 (Windows NT 10.0; Win64; x64) AppleWebKit/537.36 (KHTML, like Gecko) Chrome/121.0.0.0 Safari/537.36 Edg/121.0.0.0" version="23.1.1" etag="Xo3JNRU8zY4AVNU99rc8" type="github">
  <diagram name="페이지-1" id="EQnqpnRG8uZnX6RVdCBE">
    <mxGraphModel>
      <root>
        <mxCell id="0" />
        <mxCell id="1" parent="0" />
      </root>
    </mxGraphModel>
  </diagram>
</mxfile>
